<?xml version="1.0" encoding="UTF-8"?>
<svg xmlns="http://www.w3.org/2000/svg" width="190" height="41" viewBox="0 0 190 41" fill="none">
  <path d="M1.17287 38.1274V31.6752H5.1548V32.5785H2.16836V34.4405H4.91515V35.3438H2.16836V38.1274H1.17287ZM8.53861 38.2565C8.02858 38.2565 7.58922 38.1643 7.22052 37.98C6.85797 37.7956 6.5753 37.5314 6.37251 37.1873C6.17588 36.837 6.07756 36.413 6.07756 35.9153V31.6752H7.08226V35.9429C7.08226 36.3976 7.20823 36.7479 7.46017 36.9937C7.71211 37.2395 8.07159 37.3624 8.53861 37.3624C9.00563 37.3624 9.36511 37.2395 9.61705 36.9937C9.86899 36.7479 9.99497 36.3976 9.99497 35.9429V31.6752H10.9904V35.9153C10.9904 36.413 10.8921 36.837 10.6955 37.1873C10.4989 37.5314 10.2162 37.7956 9.84749 37.98C9.47879 38.1643 9.0425 38.2565 8.53861 38.2565ZM9.50644 31.1498C9.32209 31.1498 9.1654 31.0915 9.03635 30.9747C8.91345 30.858 8.852 30.7013 8.852 30.5046C8.852 30.308 8.91345 30.1513 9.03635 30.0345C9.1654 29.9178 9.32209 29.8594 9.50644 29.8594C9.69079 29.8594 9.84441 29.9178 9.96731 30.0345C10.0902 30.1513 10.1517 30.308 10.1517 30.5046C10.1517 30.7013 10.0902 30.858 9.96731 30.9747C9.84441 31.0915 9.69079 31.1498 9.50644 31.1498ZM7.57078 31.1498C7.38643 31.1498 7.22974 31.0915 7.10069 30.9747C6.97779 30.858 6.91634 30.7013 6.91634 30.5046C6.91634 30.308 6.97779 30.1513 7.10069 30.0345C7.22974 29.9178 7.38643 29.8594 7.57078 29.8594C7.75513 29.8594 7.90875 29.9178 8.03165 30.0345C8.15455 30.1513 8.216 30.308 8.216 30.5046C8.216 30.7013 8.15455 30.858 8.03165 30.9747C7.90875 31.0915 7.75513 31.1498 7.57078 31.1498ZM12.2896 38.1274V31.6752H14.9995C15.399 31.6752 15.7492 31.7459 16.0503 31.8872C16.3576 32.0224 16.5941 32.2191 16.7601 32.4772C16.9321 32.7352 17.0181 33.0425 17.0181 33.3989V33.5003C17.0181 33.9059 16.9198 34.2315 16.7232 34.4773C16.5327 34.717 16.2992 34.886 16.0227 34.9843V35.1318C16.2562 35.1441 16.4436 35.2239 16.5849 35.3714C16.7263 35.5128 16.7969 35.7186 16.7969 35.989V38.1274H15.7922V36.1273C15.7922 35.9613 15.7492 35.8292 15.6632 35.7309C15.5772 35.6326 15.4389 35.5834 15.2484 35.5834H13.2851V38.1274H12.2896ZM13.2851 34.6801H14.8889C15.2453 34.6801 15.5218 34.591 15.7185 34.4128C15.9151 34.2285 16.0134 33.9796 16.0134 33.6662V33.5925C16.0134 33.2791 15.9151 33.0333 15.7185 32.8551C15.528 32.6707 15.2515 32.5785 14.8889 32.5785H13.2851V34.6801ZM20.4629 38.1274V31.6752H24.5278V32.5785H21.4584V34.4313H24.2697V35.3346H21.4584V37.2241H24.5738V38.1274H20.4629ZM25.6117 38.1274V31.6752H26.6072V38.1274H25.6117ZM27.952 38.1274V31.6752H29.8693L31.6206 37.4638H31.7681V31.6752H32.7543V38.1274H30.8371L29.0858 32.3297H28.9383V38.1274H27.952ZM34.1 38.1274V31.6752H38.1649V32.5785H35.0955V34.4313H37.9068V35.3346H35.0955V37.2241H38.211V38.1274H34.1ZM41.5982 38.1274V31.6752H45.6631V32.5785H42.5936V34.4313H45.405V35.3346H42.5936V37.2241H45.7091V38.1274H41.5982ZM49.1619 38.2565C48.6519 38.2565 48.2125 38.1643 47.8438 37.98C47.4813 37.7956 47.1986 37.5314 46.9958 37.1873C46.7992 36.837 46.7009 36.413 46.7009 35.9153V31.6752H47.7056V35.9429C47.7056 36.3976 47.8315 36.7479 48.0835 36.9937C48.3354 37.2395 48.6949 37.3624 49.1619 37.3624C49.6289 37.3624 49.9884 37.2395 50.2404 36.9937C50.4923 36.7479 50.6183 36.3976 50.6183 35.9429V31.6752H51.6138V35.9153C51.6138 36.413 51.5154 36.837 51.3188 37.1873C51.1222 37.5314 50.8395 37.7956 50.4708 37.98C50.1021 38.1643 49.6658 38.2565 49.1619 38.2565ZM52.9129 38.1274V31.6752H55.6228C56.0223 31.6752 56.3725 31.7459 56.6736 31.8872C56.9809 32.0224 57.2175 32.2191 57.3834 32.4772C57.5554 32.7352 57.6415 33.0425 57.6415 33.3989V33.5003C57.6415 33.9059 57.5431 34.2315 57.3465 34.4773C57.156 34.717 56.9225 34.886 56.646 34.9843V35.1318C56.8795 35.1441 57.0669 35.2239 57.2082 35.3714C57.3496 35.5128 57.4202 35.7186 57.4202 35.989V38.1274H56.4155V36.1273C56.4155 35.9613 56.3725 35.8292 56.2865 35.7309C56.2005 35.6326 56.0622 35.5834 55.8717 35.5834H53.9084V38.1274H52.9129ZM53.9084 34.6801H55.5122C55.8686 34.6801 56.1452 34.591 56.3418 34.4128C56.5384 34.2285 56.6368 33.9796 56.6368 33.6662V33.5925C56.6368 33.2791 56.5384 33.0333 56.3418 32.8551C56.1513 32.6707 55.8748 32.5785 55.5122 32.5785H53.9084V34.6801ZM61.161 38.2565C60.3683 38.2565 59.7385 38.0353 59.2714 37.5928C58.8044 37.1442 58.5709 36.499 58.5709 35.6572V34.1455C58.5709 33.3037 58.8044 32.6615 59.2714 32.2191C59.7385 31.7705 60.3683 31.5462 61.161 31.5462C61.9537 31.5462 62.5836 31.7705 63.0506 32.2191C63.5237 32.6615 63.7603 33.3037 63.7603 34.1455V35.6572C63.7603 36.499 63.5237 37.1442 63.0506 37.5928C62.5836 38.0353 61.9537 38.2565 61.161 38.2565ZM61.161 37.3624C61.671 37.3624 62.0643 37.2149 62.3408 36.92C62.6174 36.6189 62.7556 36.2102 62.7556 35.694V34.1086C62.7556 33.5925 62.6174 33.1869 62.3408 32.8919C62.0643 32.5908 61.671 32.4403 61.161 32.4403C60.6633 32.4403 60.2731 32.5908 59.9904 32.8919C59.7077 33.1869 59.5664 33.5925 59.5664 34.1086V35.694C59.5664 36.2102 59.7077 36.6189 59.9904 36.92C60.2731 37.2149 60.6633 37.3624 61.161 37.3624ZM64.9388 38.1274V31.6752H67.5012C67.8945 31.6752 68.2448 31.7551 68.552 31.9149C68.8654 32.0685 69.1081 32.2897 69.2802 32.5785C69.4584 32.8612 69.5475 33.2023 69.5475 33.6017V33.7215C69.5475 34.1209 69.4553 34.465 69.271 34.7539C69.0928 35.0427 68.8501 35.2639 68.5428 35.4175C68.2356 35.5711 67.8884 35.648 67.5012 35.648H65.9343V38.1274H64.9388ZM65.9343 34.7446H67.3998C67.7501 34.7446 68.0297 34.6525 68.2386 34.4681C68.4476 34.2838 68.552 34.0318 68.552 33.7123V33.6201C68.552 33.2944 68.4476 33.0394 68.2386 32.8551C68.0297 32.6707 67.7501 32.5785 67.3998 32.5785H65.9343V34.7446ZM69.5093 38.1274L71.3528 31.6752H73.1041L74.9383 38.1274H73.9152L73.4912 36.6066H70.9656L70.5416 38.1274H69.5093ZM71.2145 35.6848H73.2423L72.3022 32.2928H72.1547L71.2145 35.6848ZM73.1962 31.1498C73.0119 31.1498 72.8552 31.0915 72.7262 30.9747C72.6033 30.858 72.5418 30.7013 72.5418 30.5046C72.5418 30.308 72.6033 30.1513 72.7262 30.0345C72.8552 29.9178 73.0119 29.8594 73.1962 29.8594C73.3806 29.8594 73.5342 29.9178 73.6571 30.0345C73.78 30.1513 73.8415 30.308 73.8415 30.5046C73.8415 30.7013 73.78 30.858 73.6571 30.9747C73.5342 31.0915 73.3806 31.1498 73.1962 31.1498ZM71.2606 31.1498C71.0762 31.1498 70.9195 31.0915 70.7905 30.9747C70.6676 30.858 70.6061 30.7013 70.6061 30.5046C70.6061 30.308 70.6676 30.1513 70.7905 30.0345C70.9195 29.9178 71.0762 29.8594 71.2606 29.8594C71.4449 29.8594 71.5986 29.9178 71.7215 30.0345C71.8444 30.1513 71.9058 30.308 71.9058 30.5046C71.9058 30.7013 71.8444 30.858 71.7215 30.9747C71.5986 31.0915 71.4449 31.1498 71.2606 31.1498ZM75.8125 38.1274V31.6752H76.808V38.1274H75.8125ZM80.3466 38.2565C79.8611 38.2565 79.431 38.1705 79.0562 37.9984C78.6813 37.8263 78.3864 37.5744 78.1713 37.2426C77.9624 36.9046 77.8579 36.496 77.8579 36.0166V35.7862H78.8442V36.0166C78.8442 36.4714 78.9793 36.8124 79.2497 37.0398C79.5262 37.2671 79.8919 37.3808 80.3466 37.3808C80.8075 37.3808 81.1547 37.2856 81.3882 37.0951C81.6217 36.8985 81.7384 36.6465 81.7384 36.3393C81.7384 36.1365 81.6831 35.9706 81.5725 35.8415C81.4619 35.7125 81.3052 35.6111 81.1024 35.5373C80.8996 35.4575 80.6569 35.3837 80.3742 35.3161L80.0332 35.2332C79.6215 35.1348 79.262 35.015 78.9548 34.8737C78.6537 34.7262 78.4202 34.5326 78.2542 34.293C78.0883 34.0533 78.0054 33.7461 78.0054 33.3712C78.0054 32.9903 78.0975 32.6646 78.2819 32.3942C78.4724 32.1238 78.7335 31.9149 79.0654 31.7674C79.3972 31.6199 79.7874 31.5462 80.236 31.5462C80.6846 31.5462 81.084 31.623 81.4343 31.7766C81.7907 31.9303 82.0703 32.1576 82.273 32.4587C82.4758 32.7598 82.5772 33.1377 82.5772 33.5925V33.9243H81.5909V33.5925C81.5909 33.3159 81.5326 33.0917 81.4158 32.9196C81.3052 32.7475 81.1485 32.6216 80.9457 32.5417C80.7429 32.4618 80.5064 32.4218 80.236 32.4218C79.8427 32.4218 79.5355 32.5048 79.3142 32.6707C79.0992 32.8305 78.9916 33.0548 78.9916 33.3436C78.9916 33.5402 79.0377 33.7031 79.1299 33.8321C79.2282 33.955 79.3695 34.0564 79.5539 34.1363C79.7382 34.2162 79.9687 34.2868 80.2452 34.3483L80.5862 34.4313C81.0041 34.5234 81.3728 34.6433 81.6923 34.7907C82.0119 34.9321 82.2638 35.1256 82.4482 35.3714C82.6325 35.6172 82.7247 35.9337 82.7247 36.3208C82.7247 36.708 82.6264 37.0459 82.4297 37.3347C82.2392 37.6236 81.9658 37.8509 81.6094 38.0168C81.253 38.1766 80.832 38.2565 80.3466 38.2565ZM86.1663 38.2565C85.3797 38.2565 84.756 38.0353 84.2951 37.5928C83.8342 37.1442 83.6038 36.499 83.6038 35.6572V34.1455C83.6038 33.3037 83.8342 32.6615 84.2951 32.2191C84.756 31.7705 85.3797 31.5462 86.1663 31.5462C86.9405 31.5462 87.5366 31.7613 87.9544 32.1914C88.3784 32.6216 88.5904 33.2084 88.5904 33.9519V34.0072H87.6042V33.9243C87.6042 33.488 87.4843 33.1316 87.2447 32.8551C87.0112 32.5785 86.6517 32.4403 86.1663 32.4403C85.6747 32.4403 85.2906 32.5908 85.0141 32.8919C84.7376 33.1869 84.5993 33.5986 84.5993 34.1271V35.6756C84.5993 36.1979 84.7376 36.6096 85.0141 36.9107C85.2906 37.2118 85.6747 37.3624 86.1663 37.3624C86.6517 37.3624 87.0112 37.2241 87.2447 36.9476C87.4843 36.6649 87.6042 36.3085 87.6042 35.8784V35.7217H88.5904V35.8507C88.5904 36.5943 88.3784 37.1811 87.9544 37.6113C87.5366 38.0414 86.9405 38.2565 86.1663 38.2565ZM89.6926 38.1274V31.6752H90.6881V34.4405H93.398V31.6752H94.3935V38.1274H93.398V35.3438H90.6881V38.1274H89.6926ZM95.7416 38.1274V31.6752H99.8065V32.5785H96.7371V34.4313H99.5484V35.3346H96.7371V37.2241H99.8526V38.1274H95.7416ZM103.009 38.1274V36.837L106.401 32.6984V32.5693H103.111V31.6752H107.424V32.9657L104.032 37.1043V37.2334H107.461V38.1274H103.009ZM108.56 38.1274V31.6752H109.555V38.1274H108.56ZM112.218 38.1274L110.421 31.6752H111.453L113.02 37.5007H113.14L114.698 31.6752H115.73L113.942 38.1274H112.218ZM116.607 38.1274V31.6752H117.602V38.1274H116.607ZM118.947 38.1274V31.6752H119.943V37.2241H123.049V38.1274H118.947ZM125.994 38.2565C125.533 38.2565 125.121 38.1582 124.759 37.9615C124.396 37.7587 124.11 37.4638 123.901 37.0767C123.692 36.6895 123.588 36.2164 123.588 35.6572V34.1455C123.588 33.3037 123.818 32.6615 124.279 32.2191C124.74 31.7705 125.364 31.5462 126.15 31.5462C126.925 31.5462 127.521 31.7582 127.939 32.1822C128.357 32.6001 128.565 33.1623 128.565 33.869V33.9151H127.579V33.8413C127.579 33.5771 127.527 33.3405 127.422 33.1316C127.318 32.9165 127.161 32.7475 126.952 32.6246C126.743 32.5017 126.476 32.4403 126.15 32.4403C125.659 32.4403 125.275 32.5908 124.998 32.8919C124.722 33.1869 124.584 33.5986 124.584 34.1271V35.6756C124.584 36.1979 124.722 36.6127 124.998 36.92C125.275 37.2211 125.662 37.3716 126.16 37.3716C126.651 37.3716 127.011 37.2364 127.238 36.966C127.465 36.6957 127.579 36.3454 127.579 35.9153V35.7954H125.846V34.9382H128.565V38.1274H127.644V37.473H127.496C127.441 37.5898 127.358 37.7096 127.247 37.8325C127.143 37.9554 126.989 38.0568 126.786 38.1367C126.59 38.2165 126.326 38.2565 125.994 38.2565ZM129.848 38.1274V31.6752H133.913V32.5785H130.843V34.4313H133.655V35.3346H130.843V37.2241H133.959V38.1274H129.848ZM137.19 38.2565C136.705 38.2565 136.275 38.1705 135.9 37.9984C135.525 37.8263 135.23 37.5744 135.015 37.2426C134.806 36.9046 134.702 36.496 134.702 36.0166V35.7862H135.688V36.0166C135.688 36.4714 135.823 36.8124 136.094 37.0398C136.37 37.2671 136.736 37.3808 137.19 37.3808C137.651 37.3808 137.999 37.2856 138.232 37.0951C138.466 36.8985 138.582 36.6465 138.582 36.3393C138.582 36.1365 138.527 35.9706 138.416 35.8415C138.306 35.7125 138.149 35.6111 137.946 35.5373C137.743 35.4575 137.501 35.3837 137.218 35.3161L136.877 35.2332C136.465 35.1348 136.106 35.015 135.799 34.8737C135.498 34.7262 135.264 34.5326 135.098 34.293C134.932 34.0533 134.849 33.7461 134.849 33.3712C134.849 32.9903 134.941 32.6646 135.126 32.3942C135.316 32.1238 135.577 31.9149 135.909 31.7674C136.241 31.6199 136.631 31.5462 137.08 31.5462C137.528 31.5462 137.928 31.623 138.278 31.7766C138.635 31.9303 138.914 32.1576 139.117 32.4587C139.32 32.7598 139.421 33.1377 139.421 33.5925V33.9243H138.435V33.5925C138.435 33.3159 138.376 33.0917 138.26 32.9196C138.149 32.7475 137.992 32.6216 137.79 32.5417C137.587 32.4618 137.35 32.4218 137.08 32.4218C136.687 32.4218 136.379 32.5048 136.158 32.6707C135.943 32.8305 135.835 33.0548 135.835 33.3436C135.835 33.5402 135.882 33.7031 135.974 33.8321C136.072 33.955 136.213 34.0564 136.398 34.1363C136.582 34.2162 136.813 34.2868 137.089 34.3483L137.43 34.4313C137.848 34.5234 138.217 34.6433 138.536 34.7907C138.856 34.9321 139.108 35.1256 139.292 35.3714C139.476 35.6172 139.569 35.9337 139.569 36.3208C139.569 36.708 139.47 37.0459 139.274 37.3347C139.083 37.6236 138.81 37.8509 138.453 38.0168C138.097 38.1766 137.676 38.2565 137.19 38.2565ZM140.614 38.1274V31.6752H144.678V32.5785H141.609V34.4313H144.42V35.3346H141.609V37.2241H144.725V38.1274H140.614ZM145.762 38.1274V31.6752H146.758V37.2241H149.864V38.1274H145.762ZM150.776 38.1274V31.6752H151.772V37.2241H154.878V38.1274H150.776ZM157.984 38.2565C157.498 38.2565 157.068 38.1705 156.693 37.9984C156.318 37.8263 156.023 37.5744 155.808 37.2426C155.599 36.9046 155.495 36.496 155.495 36.0166V35.7862H156.481V36.0166C156.481 36.4714 156.616 36.8124 156.887 37.0398C157.163 37.2671 157.529 37.3808 157.984 37.3808C158.445 37.3808 158.792 37.2856 159.025 37.0951C159.259 36.8985 159.376 36.6465 159.376 36.3393C159.376 36.1365 159.32 35.9706 159.21 35.8415C159.099 35.7125 158.942 35.6111 158.74 35.5373C158.537 35.4575 158.294 35.3837 158.011 35.3161L157.67 35.2332C157.259 35.1348 156.899 35.015 156.592 34.8737C156.291 34.7262 156.057 34.5326 155.891 34.293C155.725 34.0533 155.642 33.7461 155.642 33.3712C155.642 32.9903 155.735 32.6646 155.919 32.3942C156.109 32.1238 156.371 31.9149 156.702 31.7674C157.034 31.6199 157.424 31.5462 157.873 31.5462C158.322 31.5462 158.721 31.623 159.071 31.7766C159.428 31.9303 159.707 32.1576 159.91 32.4587C160.113 32.7598 160.214 33.1377 160.214 33.5925V33.9243H159.228V33.5925C159.228 33.3159 159.17 33.0917 159.053 32.9196C158.942 32.7475 158.786 32.6216 158.583 32.5417C158.38 32.4618 158.143 32.4218 157.873 32.4218C157.48 32.4218 157.173 32.5048 156.951 32.6707C156.736 32.8305 156.629 33.0548 156.629 33.3436C156.629 33.5402 156.675 33.7031 156.767 33.8321C156.865 33.955 157.007 34.0564 157.191 34.1363C157.375 34.2162 157.606 34.2868 157.882 34.3483L158.223 34.4313C158.641 34.5234 159.01 34.6433 159.329 34.7907C159.649 34.9321 159.901 35.1256 160.085 35.3714C160.27 35.6172 160.362 35.9337 160.362 36.3208C160.362 36.708 160.263 37.0459 160.067 37.3347C159.876 37.6236 159.603 37.8509 159.246 38.0168C158.89 38.1766 158.469 38.2565 157.984 38.2565ZM163.803 38.2565C163.017 38.2565 162.393 38.0353 161.932 37.5928C161.471 37.1442 161.241 36.499 161.241 35.6572V34.1455C161.241 33.3037 161.471 32.6615 161.932 32.2191C162.393 31.7705 163.017 31.5462 163.803 31.5462C164.578 31.5462 165.174 31.7613 165.592 32.1914C166.016 32.6216 166.228 33.2084 166.228 33.9519V34.0072H165.241V33.9243C165.241 33.488 165.121 33.1316 164.882 32.8551C164.648 32.5785 164.289 32.4403 163.803 32.4403C163.312 32.4403 162.928 32.5908 162.651 32.8919C162.375 33.1869 162.236 33.5986 162.236 34.1271V35.6756C162.236 36.1979 162.375 36.6096 162.651 36.9107C162.928 37.2118 163.312 37.3624 163.803 37.3624C164.289 37.3624 164.648 37.2241 164.882 36.9476C165.121 36.6649 165.241 36.3085 165.241 35.8784V35.7217H166.228V35.8507C166.228 36.5943 166.016 37.1811 165.592 37.6113C165.174 38.0414 164.578 38.2565 163.803 38.2565ZM167.33 38.1274V31.6752H168.325V34.4405H171.035V31.6752H172.031V38.1274H171.035V35.3438H168.325V38.1274H167.33ZM172.899 38.1274L174.743 31.6752H176.494L178.328 38.1274H177.305L176.881 36.6066H174.356L173.932 38.1274H172.899ZM174.605 35.6848H176.632L175.692 32.2928H175.545L174.605 35.6848ZM179.203 38.1274V31.6752H183.184V32.5785H180.198V34.4405H182.945V35.3438H180.198V38.1274H179.203ZM185.693 38.1274V32.5785H183.711V31.6752H188.67V32.5785H186.688V38.1274H185.693Z" fill="#E82F2F"></path>
  <path d="M6.92285 24.3655L13.2197 1.40836H20.074L26.3709 24.3655H22.3042L20.9267 19.1182H12.367L10.9895 24.3655H6.92285ZM13.2853 15.5106H20.0084L16.9256 3.86806H16.3681L13.2853 15.5106Z" fill="#E82F2F"></path>
  <path d="M37.655 24.8247C35.8184 24.8247 34.2333 24.4967 32.8995 23.8408C31.5877 23.163 30.571 22.1901 29.8495 20.922C29.1499 19.6538 28.8001 18.1452 28.8001 16.3961V1.40836H32.7356V16.4945C32.7356 18.025 33.1619 19.2056 34.0146 20.0365C34.8673 20.8673 36.0808 21.2827 37.655 21.2827C39.251 21.2827 40.4645 20.8673 41.2953 20.0365C42.148 19.2056 42.5744 18.025 42.5744 16.4945V1.40836H46.5099V16.3961C46.5099 18.1452 46.16 19.6538 45.4604 20.922C44.7607 22.1901 43.7441 23.163 42.4104 23.8408C41.0767 24.4967 39.4915 24.8247 37.655 24.8247Z" fill="#E82F2F"></path>
  <path d="M58.8378 24.8247C57.0887 24.8247 55.5364 24.5186 54.1808 23.9064C52.8471 23.2723 51.7976 22.365 51.0324 21.1843C50.2671 20.0037 49.8845 18.5606 49.8845 16.8553V16.0026H53.7872V16.8553C53.7872 18.3639 54.2464 19.4899 55.1647 20.2332C56.083 20.9766 57.3073 21.3483 58.8378 21.3483C60.3902 21.3483 61.5599 21.0313 62.347 20.3972C63.1341 19.7632 63.5276 18.9433 63.5276 17.9375C63.5276 17.2597 63.3418 16.7131 62.9701 16.2977C62.5984 15.8604 62.0518 15.5106 61.3303 15.2483C60.6307 14.9859 59.778 14.7345 58.7722 14.4939L57.7883 14.2972C56.2797 13.9473 54.9679 13.5101 53.8528 12.9853C52.7596 12.4387 51.9179 11.7391 51.3275 10.8864C50.7372 10.0337 50.442 8.91864 50.442 7.54121C50.442 6.16378 50.77 4.98312 51.4259 3.99924C52.0819 3.01536 53.0111 2.26106 54.2136 1.73632C55.4161 1.21159 56.8263 0.949219 58.4443 0.949219C60.0622 0.949219 61.5052 1.22252 62.7733 1.76912C64.0414 2.31572 65.0363 3.13562 65.7578 4.22881C66.5011 5.32201 66.8728 6.68851 66.8728 8.32831V9.41058H62.9701V8.32831C62.9701 7.38816 62.7843 6.63385 62.4126 6.06539C62.0409 5.49692 61.5162 5.08151 60.8384 4.81914C60.1606 4.55677 59.3626 4.42559 58.4443 4.42559C57.0887 4.42559 56.0611 4.68796 55.3614 5.21269C54.6618 5.73743 54.312 6.4808 54.312 7.44282C54.312 8.05501 54.465 8.57974 54.7711 9.01702C55.0991 9.43244 55.5692 9.78226 56.1813 10.0665C56.8154 10.3289 57.6025 10.5584 58.5427 10.7552L59.5265 10.9848C61.1007 11.3346 62.4782 11.7828 63.6588 12.3294C64.8395 12.8542 65.7578 13.5538 66.4137 14.4284C67.0915 15.3029 67.4304 16.4398 67.4304 17.8391C67.4304 19.2166 67.0696 20.43 66.3481 21.4795C65.6484 22.529 64.6536 23.3489 63.3637 23.9392C62.0955 24.5295 60.5869 24.8247 58.8378 24.8247Z" fill="#E82F2F"></path>
  <path d="M75.4976 24.3655V4.98312H68.6433V1.40836H86.2875V4.98312H79.4332V24.3655H75.4976Z" fill="#E82F2F"></path>
  <path d="M85.5499 24.3655L91.8467 1.40836H98.701L104.998 24.3655H100.931L99.5537 19.1182H90.994L89.6166 24.3655H85.5499ZM91.9123 15.5106H98.6354L95.5526 3.86806H94.9951L91.9123 15.5106Z" fill="#E82F2F"></path>
  <path d="M116.282 24.8247C114.445 24.8247 112.86 24.4967 111.527 23.8408C110.215 23.163 109.198 22.1901 108.477 20.922C107.777 19.6538 107.427 18.1452 107.427 16.3961V1.40836H111.363V16.4945C111.363 18.025 111.789 19.2056 112.642 20.0365C113.494 20.8673 114.708 21.2827 116.282 21.2827C117.878 21.2827 119.091 20.8673 119.922 20.0365C120.775 19.2056 121.201 18.025 121.201 16.4945V1.40836H125.137V16.3961C125.137 18.1452 124.787 19.6538 124.087 20.922C123.388 22.1901 122.371 23.163 121.037 23.8408C119.704 24.4967 118.119 24.8247 116.282 24.8247Z" fill="#E82F2F"></path>
  <path d="M137.465 24.8247C135.716 24.8247 134.163 24.5186 132.808 23.9064C131.474 23.2723 130.425 22.365 129.659 21.1843C128.894 20.0037 128.512 18.5606 128.512 16.8553V16.0026H132.414V16.8553C132.414 18.3639 132.873 19.4899 133.792 20.2332C134.71 20.9766 135.934 21.3483 137.465 21.3483C139.017 21.3483 140.187 21.0313 140.974 20.3972C141.761 19.7632 142.155 18.9433 142.155 17.9375C142.155 17.2597 141.969 16.7131 141.597 16.2977C141.225 15.8604 140.679 15.5106 139.957 15.2483C139.258 14.9859 138.405 14.7345 137.399 14.4939L136.415 14.2972C134.907 13.9473 133.595 13.5101 132.48 12.9853C131.387 12.4387 130.545 11.7391 129.955 10.8864C129.364 10.0337 129.069 8.91864 129.069 7.54121C129.069 6.16378 129.397 4.98312 130.053 3.99924C130.709 3.01536 131.638 2.26106 132.841 1.73632C134.043 1.21159 135.453 0.949219 137.071 0.949219C138.689 0.949219 140.132 1.22252 141.4 1.76912C142.668 2.31572 143.663 3.13562 144.385 4.22881C145.128 5.32201 145.5 6.68851 145.5 8.32831V9.41058H141.597V8.32831C141.597 7.38816 141.411 6.63385 141.04 6.06539C140.668 5.49692 140.143 5.08151 139.465 4.81914C138.788 4.55677 137.99 4.42559 137.071 4.42559C135.716 4.42559 134.688 4.68796 133.988 5.21269C133.289 5.73743 132.939 6.4808 132.939 7.44282C132.939 8.05501 133.092 8.57974 133.398 9.01702C133.726 9.43244 134.196 9.78226 134.808 10.0665C135.442 10.3289 136.23 10.5584 137.17 10.7552L138.154 10.9848C139.728 11.3346 141.105 11.7828 142.286 12.3294C143.466 12.8542 144.385 13.5538 145.041 14.4284C145.718 15.3029 146.057 16.4398 146.057 17.8391C146.057 19.2166 145.697 20.43 144.975 21.4795C144.275 22.529 143.281 23.3489 141.991 23.9392C140.723 24.5295 139.214 24.8247 137.465 24.8247Z" fill="#E82F2F"></path>
  <path d="M158.139 24.8247C155.341 24.8247 153.111 24.0376 151.449 22.4634C149.787 20.8673 148.956 18.5825 148.956 15.609V10.1649C148.956 7.19138 149.787 4.91753 151.449 3.34332C153.111 1.74725 155.341 0.949219 158.139 0.949219C160.938 0.949219 163.092 1.71446 164.6 3.24493C166.131 4.77541 166.896 6.87435 166.896 9.54176V9.73854H163.026V9.44337C163.026 8.00035 162.621 6.81969 161.812 5.90141C161.025 4.96126 159.801 4.49118 158.139 4.49118C156.521 4.49118 155.242 4.99405 154.302 5.9998C153.384 6.98367 152.925 8.35017 152.925 10.0993V15.6746C152.925 17.4019 153.384 18.7684 154.302 19.7741C155.242 20.7798 156.521 21.2827 158.139 21.2827C159.801 21.2827 161.025 20.8236 161.812 19.9053C162.621 18.9651 163.026 17.7735 163.026 16.3305V15.773H166.896V16.2321C166.896 18.8995 166.131 20.9985 164.6 22.529C163.092 24.0594 160.938 24.8247 158.139 24.8247Z" fill="#E82F2F"></path>
  <path d="M170.588 24.3655V1.40836H174.556V11.0504H183.608V1.40836H187.576V24.3655H183.608V14.6579H174.556V24.3655H170.588Z" fill="#E82F2F"></path>
  <path d="M9.59888 1.59748L4.8907 19.4448L0.499879 1.59748L9.59888 1.59748Z" fill="#E82F2F"></path>
</svg>
